<?xml version="1.0" encoding="UTF-8" standalone="no"?>
<!-- Created with Inkscape (http://www.inkscape.org/) -->

<svg
   width="221.04698mm"
   height="124.13313mm"
   viewBox="0 0 221.04699 124.13313"
   version="1.1"
   id="svg5"
   sodipodi:docname="duo-geo-white.svg"
   inkscape:version="1.4 (e7c3feb100, 2024-10-09)"
   xmlns:inkscape="http://www.inkscape.org/namespaces/inkscape"
   xmlns:sodipodi="http://sodipodi.sourceforge.net/DTD/sodipodi-0.dtd"
   xmlns="http://www.w3.org/2000/svg"
   xmlns:svg="http://www.w3.org/2000/svg">
  <sodipodi:namedview
     id="namedview1"
     pagecolor="#ffffff"
     bordercolor="#999999"
     borderopacity="1"
     inkscape:showpageshadow="0"
     inkscape:pageopacity="0"
     inkscape:pagecheckerboard="0"
     inkscape:deskcolor="#d1d1d1"
     inkscape:document-units="mm"
     showgrid="false"
     inkscape:zoom="0.26718148"
     inkscape:cx="1742.2615"
     inkscape:cy="-514.63148"
     inkscape:window-width="1920"
     inkscape:window-height="1056"
     inkscape:window-x="740"
     inkscape:window-y="1072"
     inkscape:window-maximized="0"
     inkscape:current-layer="svg5" />
  <defs
     id="defs2" />
  <g
     id="g18"
     transform="matrix(1.0088503,0,0,1.0088503,3.7225845,-9.5055114)">
    <path
       style="fill:#ffffff;fill-opacity:1;stroke:#ffffff;stroke-width:0.873007;stroke-linecap:square;stroke-linejoin:miter;stroke-miterlimit:4;stroke-dasharray:none;stroke-dashoffset:0;stroke-opacity:0.962191"
       d="m 31.87814,25.828468 2.74e-4,4.415072"
       id="path23" />
    <path
       id="circle2146"
       style="fill:none;fill-opacity:1;stroke:#b1c1ff;stroke-width:1.44883;stroke-linecap:round;stroke-linejoin:bevel;stroke-dasharray:none;stroke-opacity:0.962191"
       d="M 162.00193,51.239583 A 19.166854,19.166854 0 0 1 142.83507,70.406437 19.166854,19.166854 0 0 1 123.66821,51.239583 19.166854,19.166854 0 0 1 142.83507,32.072729 19.166854,19.166854 0 0 1 162.00193,51.239583 Z" />
    <path
       style="fill:none;fill-opacity:0.931151;stroke:#ffffff;stroke-width:1.44883;stroke-linecap:round;stroke-linejoin:bevel;stroke-dasharray:none;stroke-opacity:0.962191"
       id="circle2148"
       d="M 70.00102,112.57352 A 19.166854,19.166854 0 0 1 54.573433,131.37209 19.166854,19.166854 0 0 1 33.126301,119.90836 19.166854,19.166854 0 0 1 40.185632,96.636865 19.166854,19.166854 0 0 1 64.387178,99.02051" />
    <path
       id="circle2152"
       style="fill:none;fill-opacity:1;stroke:#b1c1ff;stroke-width:1.44883;stroke-linecap:round;stroke-linejoin:bevel;stroke-dasharray:none;stroke-opacity:0.962191"
       d="m 162.00193,112.57352 a 19.166854,19.166854 0 0 1 -19.16686,19.16686 19.166854,19.166854 0 0 1 -19.16686,-19.16686 19.166854,19.166854 0 0 1 19.16686,-19.166852 19.166854,19.166854 0 0 1 19.16686,19.166852 z" />
    <path
       style="fill:none;fill-opacity:0.931151;stroke:#ffffff;stroke-width:1.44883;stroke-linecap:round;stroke-linejoin:miter;stroke-miterlimit:4;stroke-dasharray:none;stroke-opacity:0.962191"
       d="M 50.834166,112.57352 H 70.00102"
       id="path2858" />
    <path
       style="fill:none;fill-opacity:0.931151;stroke:#ffffff;stroke-width:1.44883;stroke-linecap:round;stroke-linejoin:bevel;stroke-dasharray:none;stroke-opacity:0.962191"
       id="path3024"
       d="m 116.00148,112.57352 a 19.166854,19.166854 0 0 0 -15.4276,-18.798565 19.166854,19.166854 0 0 0 -21.447127,11.463725 19.166854,19.166854 0 0 0 7.059331,23.2715 19.166854,19.166854 0 0 0 24.201546,-2.38365" />
    <path
       style="fill:none;fill-opacity:0.931151;stroke:#ffffff;stroke-width:1.44883;stroke-linecap:round;stroke-linejoin:miter;stroke-miterlimit:4;stroke-dasharray:none;stroke-opacity:0.962191"
       d="M 96.834616,112.57351 H 116.00148"
       id="path3026" />
    <path
       style="fill:none;fill-opacity:0.931151;stroke:#ffffff;stroke-width:1.44883;stroke-linecap:round;stroke-linejoin:bevel;stroke-dasharray:none;stroke-opacity:1"
       id="circle3165"
       d="m 113.43359,41.656161 a 19.166854,19.166854 0 0 1 -4.27876,24.266089 19.166854,19.166854 0 0 1 -24.640429,0 19.166854,19.166854 0 0 1 -4.278766,-24.266089" />
    <path
       style="fill:none;fill-opacity:0.931151;stroke:#ffffff;stroke-width:1.44883;stroke-linecap:round;stroke-linejoin:bevel;stroke-dasharray:none;stroke-opacity:1"
       id="path3527"
       d="m 41.250739,34.6406 a 19.166854,19.166854 0 0 1 24.266089,4.278766 19.166854,19.166854 0 0 1 0,24.640433 19.166854,19.166854 0 0 1 -24.266089,4.278766" />
    <path
       style="fill:none;fill-opacity:0.931151;stroke:#ffffff;stroke-width:0.579533;stroke-linecap:round;stroke-linejoin:miter;stroke-miterlimit:4;stroke-dasharray:4.63627, 4.63627;stroke-dashoffset:0;stroke-opacity:0.962191"
       d="M 31.66731,81.906553 H 165.8353"
       id="path3862" />
    <g
       id="g14"
       transform="matrix(1.4488331,0,0,1.4488331,-193.30249,4.75132)">
      <g
         id="g11"
         transform="translate(70.411903,2.5415134)">
        <rect
           style="fill:#ffffff;fill-opacity:1;stroke:#000000;stroke-width:0.602559;stroke-linecap:round;stroke-linejoin:miter;stroke-miterlimit:4;stroke-dasharray:none;stroke-dashoffset:0;stroke-opacity:0.962191"
           id="rect10"
           width="3.0714436"
           height="7.6862092"
           x="68.494492"
           y="6.8762898"
           ry="2.4531715" />
        <rect
           style="fill:#ffffff;fill-opacity:1;stroke:#000000;stroke-width:0.602559;stroke-linecap:round;stroke-linejoin:miter;stroke-miterlimit:4;stroke-dasharray:none;stroke-dashoffset:0;stroke-opacity:0.962191"
           id="rect11"
           width="7.9482913"
           height="11.887995"
           x="66.056068"
           y="14.614274"
           ry="2.4531715" />
      </g>
      <circle
         style="fill:#000000;fill-opacity:1;stroke:none;stroke-width:0.500002;stroke-linejoin:round;stroke-opacity:1"
         id="circle12"
         cx="138.85814"
         cy="23.055058"
         r="0.73167694" />
      <circle
         style="fill:#000000;fill-opacity:1;stroke:none;stroke-width:0.500002;stroke-linejoin:round;stroke-opacity:1"
         id="circle13"
         cx="142.18283"
         cy="23.055058"
         r="0.73167694" />
      <path
         style="fill:none;fill-opacity:1;stroke:#000000;stroke-width:0.500002;stroke-linejoin:round;stroke-opacity:1"
         d="m 137.73419,21.596688 c 0.96355,0.119432 1.50658,-0.212969 2.0139,-0.613223"
         id="path13"
         sodipodi:nodetypes="cc" />
      <path
         style="fill:none;fill-opacity:1;stroke:#000000;stroke-width:0.500002;stroke-linejoin:round;stroke-opacity:1"
         d="m 143.11738,21.352995 c -0.59259,-0.339575 -1.34925,-0.419047 -2.02965,-0.09323"
         id="path14"
         sodipodi:nodetypes="cc" />
    </g>
    <g
       id="g19"
       transform="matrix(1.448696,0.01993335,-0.01993335,1.448696,-258.75092,108.47256)">
      <path
         style="fill:#ffffff;fill-opacity:1;stroke:#ffffff;stroke-width:0.602559;stroke-linecap:square;stroke-linejoin:miter;stroke-miterlimit:4;stroke-dasharray:none;stroke-dashoffset:0;stroke-opacity:0.962191"
         d="m 178.34843,8.3936846 -0.3014,3.0323874"
         id="path19" />
      <path
         id="path18"
         style="fill:#ffffff;fill-opacity:1;stroke:#000000;stroke-width:0.602559;stroke-linecap:round;stroke-linejoin:miter;stroke-miterlimit:4;stroke-dasharray:none;stroke-dashoffset:0;stroke-opacity:0.962191"
         d="m 181.66211,-43.638114 -2.60773,26.237011 -2.54562,25.6119396 1.83967,0.182848 2.54562,-25.6119376 1.38026,0.137186 2.60774,-26.237012 z" />
    </g>
    <path
       id="rect22"
       style="fill:#ffffff;fill-opacity:1;stroke:#000000;stroke-width:0.873646;stroke-linejoin:round;stroke-dasharray:none;stroke-opacity:1"
       inkscape:transform-center-x="-11.603443"
       inkscape:transform-center-y="9.9542547"
       d="M 31.878385,30.243184 V 65.276602 L 16.157071,46.902625 12.593234,49.952103 32.236266,72.909652 34.01444,71.388283 34.558,70.923337 35.800102,69.860176 34.558,68.408436 l 2e-6,-38.16525 z"
       sodipodi:nodetypes="ccccccccccc" />
    <g
       id="g25"
       transform="matrix(1.4488331,0,0,1.4488331,-47.515264,-34.26002)">
      <g
         id="g17"
         transform="matrix(-0.98325574,-0.18223101,-0.18223101,0.98325574,343.83908,133.5222)">
        <path
           style="fill:#ffffff;fill-opacity:1;stroke:#ffffff;stroke-width:0.602559;stroke-linecap:square;stroke-linejoin:miter;stroke-miterlimit:4;stroke-dasharray:none;stroke-dashoffset:0;stroke-opacity:0.962191"
           d="m 178.34843,8.3936846 -0.3014,3.0323874"
           id="path17" />
        <path
           id="path16"
           style="fill:#ffffff;fill-opacity:1;stroke:#000000;stroke-width:0.602559;stroke-linecap:round;stroke-linejoin:miter;stroke-miterlimit:4;stroke-dasharray:none;stroke-dashoffset:0;stroke-opacity:0.962191"
           d="m 181.66211,-43.638114 -2.60773,26.237011 -2.54562,25.6119396 1.83967,0.182848 2.54562,-25.6119376 1.38026,0.137186 2.60774,-26.237012 z" />
      </g>
      <g
         id="g24">
        <path
           style="fill:#ffffff;fill-opacity:1;stroke:#ffffff;stroke-width:0.602559;stroke-linecap:square;stroke-linejoin:miter;stroke-miterlimit:4;stroke-dasharray:none;stroke-dashoffset:0;stroke-opacity:0.962191"
           d="m 135.1684,44.479811 -2.76234,1.286742"
           id="path24" />
        <path
           id="rect23"
           style="fill:#ffffff;fill-opacity:1;stroke:#000000;stroke-width:0.603;stroke-linejoin:round;stroke-dasharray:none;stroke-opacity:1"
           inkscape:transform-center-x="6.6337489"
           inkscape:transform-center-y="-10.672718"
           d="m 122.55422,-101.6041 -3.23872,1.5e-4 2e-5,-1.761 -21.873581,1.39911 -0.118015,-1.8467 21.991486,-1.40638 -2.7e-4,-22.75151 3.23896,3e-4 -5e-5,22.54386 0.45522,-0.0289 0.11846,1.84646 -0.57358,0.0364 z"
           transform="matrix(0.87770834,-0.47919523,-0.47919523,-0.87770834,0,0)" />
      </g>
      <g
         id="g15"
         transform="translate(-2.3754528,4.9371907)">
        <g
           id="g10"
           transform="rotate(32.745896,81.288834,212.46792)">
          <rect
             style="fill:#ffffff;fill-opacity:1;stroke:#000000;stroke-width:0.602559;stroke-linecap:round;stroke-linejoin:miter;stroke-miterlimit:4;stroke-dasharray:none;stroke-dashoffset:0;stroke-opacity:0.962191"
             id="rect6"
             width="3.0714436"
             height="7.6862092"
             x="68.494492"
             y="6.8762898"
             ry="2.4531715" />
          <rect
             style="fill:#ffffff;fill-opacity:1;stroke:#000000;stroke-width:0.602559;stroke-linecap:round;stroke-linejoin:miter;stroke-miterlimit:4;stroke-dasharray:none;stroke-dashoffset:0;stroke-opacity:0.962191"
             id="rect7"
             width="7.9482913"
             height="11.887995"
             x="66.056068"
             y="14.614274"
             ry="2.4531715" />
        </g>
        <path
           style="fill:none;stroke:#000000;stroke-width:0.500003;stroke-linejoin:round;stroke-opacity:1"
           d="m 178.24556,45.061099 c -0.23371,-0.524109 -0.41632,-1.133546 -1.18111,-1.393973"
           id="path5"
           sodipodi:nodetypes="cc" />
        <path
           style="fill:none;stroke:#000000;stroke-width:0.500003;stroke-linejoin:round;stroke-opacity:1"
           d="m 175.64698,43.207034 c -0.27216,-0.711164 -0.80273,-1.031041 -1.52904,-1.118998"
           id="path6"
           sodipodi:nodetypes="cc" />
        <circle
           style="fill:#000000;fill-opacity:1;stroke:none;stroke-width:0.500002;stroke-linejoin:round;stroke-opacity:1"
           id="path10"
           cx="170.27394"
           cy="-57.222622"
           r="0.73167694"
           transform="rotate(32.745896)" />
        <circle
           style="fill:#000000;fill-opacity:1;stroke:none;stroke-width:0.500002;stroke-linejoin:round;stroke-opacity:1"
           id="circle10"
           cx="173.16214"
           cy="-57.222622"
           r="0.73167694"
           transform="rotate(32.745896)" />
      </g>
    </g>
  </g>
</svg>
