<?xml version="1.0" encoding="UTF-8" standalone="no"?>
<!-- Created with Inkscape (http://www.inkscape.org/) -->

<svg
   width="110.56712mm"
   height="110.56712mm"
   viewBox="0 0 110.56712 110.56712"
   version="1.1"
   id="svg5"
   sodipodi:docname="duogeo.svg"
   inkscape:version="1.4.2 (ebf0e940d0, 2025-05-08)"
   xmlns:inkscape="http://www.inkscape.org/namespaces/inkscape"
   xmlns:sodipodi="http://sodipodi.sourceforge.net/DTD/sodipodi-0.dtd"
   xmlns="http://www.w3.org/2000/svg"
   xmlns:svg="http://www.w3.org/2000/svg">
  <sodipodi:namedview
     id="namedview1"
     pagecolor="#ffffff"
     bordercolor="#999999"
     borderopacity="1"
     inkscape:showpageshadow="0"
     inkscape:pageopacity="0"
     inkscape:pagecheckerboard="0"
     inkscape:deskcolor="#d1d1d1"
     inkscape:document-units="mm"
     showgrid="false"
     inkscape:zoom="0.60752131"
     inkscape:cx="383.52564"
     inkscape:cy="93.82387"
     inkscape:window-width="1920"
     inkscape:window-height="1060"
     inkscape:window-x="740"
     inkscape:window-y="1072"
     inkscape:window-maximized="1"
     inkscape:current-layer="svg5" />
  <defs
     id="defs2" />
  <circle
     style="fill:#d9f0ff;fill-opacity:1;stroke-width:2.54007;stroke-linejoin:round"
     id="path1"
     cx="55.283558"
     cy="55.283558"
     r="55.283558" />
  <path
     id="circle2146"
     style="fill:none;fill-opacity:0.931151;stroke:#002ec7;stroke-width:0.851278;stroke-linecap:round;stroke-linejoin:bevel;stroke-dasharray:none;stroke-opacity:1"
     d="M 92.424809,37.264922 A 11.261694,11.261694 0 0 1 81.163112,48.526616 11.261694,11.261694 0 0 1 69.901414,37.264922 11.261694,11.261694 0 0 1 81.163112,26.003228 11.261694,11.261694 0 0 1 92.424809,37.264922 Z" />
  <path
     style="fill:none;fill-opacity:0.931151;stroke:#00186e;stroke-width:0.851278;stroke-linecap:round;stroke-linejoin:bevel;stroke-dasharray:none;stroke-opacity:1"
     id="circle2148"
     d="M 38.368671,73.302348 A 11.261694,11.261694 0 0 1 29.304024,84.34765 11.261694,11.261694 0 0 1 16.702528,77.612009 11.261694,11.261694 0 0 1 20.850315,63.93859 11.261694,11.261694 0 0 1 35.070197,65.339127" />
  <path
     id="circle2152"
     style="fill:none;fill-opacity:0.931151;stroke:#002ec7;stroke-width:0.851278;stroke-linecap:round;stroke-linejoin:bevel;stroke-dasharray:none;stroke-opacity:1"
     d="M 92.424809,73.302348 A 11.261694,11.261694 0 0 1 81.163112,84.564045 11.261694,11.261694 0 0 1 69.901414,73.302348 11.261694,11.261694 0 0 1 81.163112,62.040653 11.261694,11.261694 0 0 1 92.424809,73.302348 Z" />
  <path
     style="fill:none;fill-opacity:0.931151;stroke:#00186e;stroke-width:0.851278;stroke-linecap:round;stroke-linejoin:miter;stroke-miterlimit:4;stroke-dasharray:none;stroke-opacity:0.962191"
     d="M 27.106977,73.302348 H 38.368671"
     id="path2858" />
  <path
     style="fill:none;fill-opacity:0.931151;stroke:#00186e;stroke-width:0.851278;stroke-linecap:round;stroke-linejoin:bevel;stroke-dasharray:none;stroke-opacity:0.962191"
     id="path3024"
     d="m 65.396741,73.302348 a 11.261694,11.261694 0 0 0 -9.064651,-11.045305 11.261694,11.261694 0 0 0 -12.601495,6.73564 11.261694,11.261694 0 0 0 4.147787,13.673422 11.261694,11.261694 0 0 0 14.21988,-1.400539" />
  <path
     style="fill:none;fill-opacity:0.931151;stroke:#00186e;stroke-width:0.851278;stroke-linecap:round;stroke-linejoin:miter;stroke-miterlimit:4;stroke-dasharray:none;stroke-opacity:0.962191"
     d="M 54.135043,73.302339 H 65.396741"
     id="path3026" />
  <path
     style="fill:none;fill-opacity:0.931151;stroke:#567dff;stroke-width:0.851278;stroke-linecap:round;stroke-linejoin:bevel;stroke-dasharray:none;stroke-opacity:0.962191"
     id="circle3165"
     d="m 63.887954,31.634078 a 11.261694,11.261694 0 0 1 -2.514036,14.257805 11.261694,11.261694 0 0 1 -14.477751,0 11.261694,11.261694 0 0 1 -2.514036,-14.257805" />
  <path
     style="fill:none;fill-opacity:0.931151;stroke:#567dff;stroke-width:0.851278;stroke-linecap:round;stroke-linejoin:bevel;stroke-dasharray:none;stroke-opacity:1"
     id="path3527"
     d="m 21.47613,27.512009 a 11.261694,11.261694 0 0 1 14.257805,2.514036 11.261694,11.261694 0 0 1 0,14.477754 11.261694,11.261694 0 0 1 -14.257805,2.514036" />
  <path
     style="fill:none;fill-opacity:0.931151;stroke:#000000;stroke-width:0.340511;stroke-linecap:round;stroke-linejoin:miter;stroke-miterlimit:4;stroke-dasharray:2.72409, 2.72409;stroke-dashoffset:0;stroke-opacity:0.962191"
     d="M 15.845282,55.283634 H 94.677145"
     id="path3862" />
</svg>
